<svg xmlns="http://www.w3.org/2000/svg" width="860" height="268" viewBox="0 0 860 268" role="img" aria-label="GitHub profile summary">
<style>text{font-family:-apple-system,BlinkMacSystemFont,"Segoe UI",Helvetica,Arial,sans-serif}.t{font-size:17px;font-weight:600}.n{font-size:30px;font-weight:700}.l{font-size:12px}.k{font-size:12.5px}</style>
<rect x="0.5" y="0.5" width="859" height="267" rx="10" fill="#0d1117" stroke="#30363d"/>
<text x="32" y="42" class="t" fill="#E4A0B7">GitHub at a glance</text>
<text x="32" y="90" class="n" fill="#e6edf3">44</text>
<text x="32" y="110" class="l" fill="#8b949e">repositories, not forks</text>
<text x="237" y="90" class="n" fill="#e6edf3">20</text>
<text x="237" y="110" class="l" fill="#8b949e">stars earned</text>
<text x="442" y="90" class="n" fill="#e6edf3">36</text>
<text x="442" y="110" class="l" fill="#8b949e">followers</text>
<text x="647" y="90" class="n" fill="#e6edf3">9</text>
<text x="647" y="110" class="l" fill="#8b949e">languages used</text>
<text x="32" y="152" class="t" fill="#E4A0B7">Repositories by primary language</text>
<clipPath id="bar"><rect x="32" y="166" width="796" height="11" rx="5.5"/></clipPath>
<g clip-path="url(#bar)">
<rect x="32" y="166" width="796" height="11" fill="#30363d"/>
<rect x="32.00" y="166" width="244.92" height="11" fill="#4d41b1"/>
<rect x="276.92" y="166" width="224.51" height="11" fill="#e34c26"/>
<rect x="501.44" y="166" width="81.64" height="11" fill="#f1e05a"/>
<rect x="583.08" y="166" width="81.64" height="11" fill="#3572A5"/>
<rect x="664.72" y="166" width="61.23" height="11" fill="#89e051"/>
<rect x="725.95" y="166" width="61.23" height="11" fill="#41b883"/>
<rect x="787.18" y="166" width="20.41" height="11" fill="#563d7c"/>
<rect x="807.59" y="166" width="20.41" height="11" fill="#a270ba"/>
</g>
<circle cx="38" cy="202" r="5" fill="#4d41b1"/>
<text x="51" y="206" class="k" fill="#e6edf3">Fortran</text>
<text x="216" y="206" class="l" text-anchor="end" fill="#6e7681">12</text>
<circle cx="246" cy="202" r="5" fill="#e34c26"/>
<text x="259" y="206" class="k" fill="#e6edf3">HTML</text>
<text x="424" y="206" class="l" text-anchor="end" fill="#6e7681">11</text>
<circle cx="454" cy="202" r="5" fill="#f1e05a"/>
<text x="467" y="206" class="k" fill="#e6edf3">JavaScript</text>
<text x="632" y="206" class="l" text-anchor="end" fill="#6e7681">4</text>
<circle cx="662" cy="202" r="5" fill="#3572A5"/>
<text x="675" y="206" class="k" fill="#e6edf3">Python</text>
<text x="840" y="206" class="l" text-anchor="end" fill="#6e7681">4</text>
<circle cx="38" cy="228" r="5" fill="#89e051"/>
<text x="51" y="232" class="k" fill="#e6edf3">Shell</text>
<text x="216" y="232" class="l" text-anchor="end" fill="#6e7681">3</text>
<circle cx="246" cy="228" r="5" fill="#41b883"/>
<text x="259" y="232" class="k" fill="#e6edf3">Vue</text>
<text x="424" y="232" class="l" text-anchor="end" fill="#6e7681">3</text>
<circle cx="454" cy="228" r="5" fill="#563d7c"/>
<text x="467" y="232" class="k" fill="#e6edf3">CSS</text>
<text x="632" y="232" class="l" text-anchor="end" fill="#6e7681">1</text>
<circle cx="662" cy="228" r="5" fill="#a270ba"/>
<text x="675" y="232" class="k" fill="#e6edf3">Julia</text>
<text x="840" y="232" class="l" text-anchor="end" fill="#6e7681">1</text>
</svg>